<svg width="75" height="60" viewBox="0 0 75 60" fill="none" xmlns="http://www.w3.org/2000/svg">
<path fill-rule="evenodd" clip-rule="evenodd" d="M15.5777 0C11.2984 0 8.1318 3.74557 8.27355 7.80765C8.40967 11.7101 8.23282 16.7644 6.96049 20.8862C5.68359 25.0196 3.52558 27.6388 0 27.975V31.7707C3.52558 32.1077 5.68359 34.7256 6.96035 38.8595C8.23283 42.9813 8.40952 48.0356 8.2734 51.9381C8.13165 55.9995 11.2982 59.7457 15.5783 59.7457H59.428C63.7074 59.7457 66.8734 56.0001 66.7316 51.9381C66.5954 48.0356 66.7723 42.9813 68.0446 38.8595C69.3215 34.7256 71.4743 32.1066 75 31.7707V27.975C71.4744 27.6381 69.3217 25.0202 68.0446 20.8862C66.7721 16.765 66.5954 11.7101 66.7316 7.80765C66.8734 3.74618 63.7074 0 59.428 0H15.5777ZM50.8475 36.7774C50.8475 42.3706 46.6755 45.7627 39.7519 45.7627H27.9661C27.629 45.7627 27.3056 45.6288 27.0672 45.3904C26.8288 45.152 26.6949 44.8287 26.6949 44.4916V15.2543C26.6949 14.9171 26.8288 14.5938 27.0672 14.3554C27.3056 14.117 27.629 13.9831 27.9661 13.9831H39.6848C45.4579 13.9831 49.2467 17.1103 49.2467 21.9114C49.2467 25.2813 46.6979 28.2982 43.4508 28.8266V29.0024C47.8711 29.4873 50.8475 32.5488 50.8475 36.7774ZM38.4668 18.0127H31.7467V27.5049H37.4067C41.7822 27.5049 44.1948 25.743 44.1948 22.5938C44.1944 19.6423 42.1202 18.0127 38.4668 18.0127ZM31.7467 31.2712V41.7318H38.714C43.2697 41.7318 45.6828 39.9038 45.6828 36.4684C45.6828 33.0331 43.202 31.2706 38.4211 31.2706L31.7467 31.2712Z" fill="#7952B3"/>
</svg>
