<svg width="68" height="75" viewBox="0 0 68 75" fill="none" xmlns="http://www.w3.org/2000/svg">
<path d="M67.0478 21.9911C67.0473 20.7334 66.7783 19.6221 66.2343 18.6682C65.7 17.7303 64.8998 16.9442 63.8265 16.3226C54.9667 11.214 46.0983 6.12106 37.2414 1.00725C34.8536 -0.371251 32.5384 -0.320996 30.1684 1.0773C26.6419 3.15704 8.9861 13.2724 3.72493 16.3197C1.55823 17.574 0.503907 19.4937 0.503382 21.9887C0.5 32.2624 0.503382 42.5359 0.5 52.8098C0.500517 54.0399 0.758045 55.1296 1.27805 56.0691C1.81263 57.0354 2.62401 57.8432 3.72207 58.4787C8.98355 61.5261 26.6416 71.6407 30.1674 73.721C32.5384 75.1201 34.8536 75.1704 37.2421 73.791C46.0993 68.6769 54.9682 63.5843 63.8293 58.4757C64.9274 57.8403 65.7387 57.0321 66.2733 56.0665C66.7926 55.1271 67.0507 54.0373 67.0512 52.8069C67.0512 52.8069 67.0512 32.265 67.0478 21.9911Z" fill="#5C8DBC"/>
<path d="M33.8775 37.2992L1.27808 56.0691C1.81266 57.0355 2.62404 57.8432 3.72214 58.4788C8.98354 61.5262 26.6417 71.6408 30.1674 73.7211C32.5385 75.12 34.8537 75.1703 37.2422 73.7911C46.0994 68.677 54.9684 63.5843 63.8295 58.4757C64.9275 57.8403 65.7389 57.0321 66.2735 56.0666L33.8775 37.2992Z" fill="#1A4674"/>
<path d="M24.2217 42.859C26.1187 46.1706 29.6847 48.4042 33.7754 48.4042C37.8914 48.4042 41.4778 46.1422 43.3651 42.7952L33.8773 37.2992L24.2217 42.859Z" fill="#1A4674"/>
<path d="M67.0478 21.9912C67.0472 20.7335 66.7783 19.6222 66.2343 18.6683L33.8774 37.2993L66.2734 56.0667C66.7926 55.1273 67.0507 54.0375 67.0512 52.8071C67.0512 52.8071 67.0512 32.2652 67.0478 21.9912Z" fill="#1B598E"/>
<path d="M65.2664 38.6406H62.7349V41.1727H60.2028V38.6406H57.6716V36.1094H60.2028V33.5779H62.7349V36.1094H65.2664V38.6406ZM56.0291 38.6406H53.4978V41.1727H50.9663V38.6406H48.4348V36.1094H50.9663V33.5779H53.4978V36.1094H56.0291V38.6406Z" fill="white"/>
<path d="M43.3652 42.7953C41.4779 46.1424 37.8914 48.4044 33.7755 48.4044C29.6847 48.4044 26.1187 46.1708 24.2217 42.8592C23.2688 41.1974 22.7684 39.3148 22.7703 37.3992C22.7703 31.3215 27.6977 26.3943 33.7755 26.3943C37.8399 26.3943 41.3872 28.6002 43.2935 31.878L52.9127 26.3389C49.0893 19.7391 41.9513 15.2988 33.7755 15.2988C21.5694 15.2988 11.6748 25.1937 11.6748 37.3992C11.6748 41.4036 12.74 45.1587 14.6018 48.3976C18.4155 55.0324 25.574 59.4999 33.7755 59.4999C41.9921 59.4999 49.1617 55.0144 52.9699 48.3601L43.3652 42.7953Z" fill="white"/>
</svg>
