<svg width="75" height="75" viewBox="0 0 75 75" fill="none" xmlns="http://www.w3.org/2000/svg">
<path d="M37.4998 74.9996C58.2104 74.9996 74.9998 58.2104 74.9998 37.4996C74.9998 16.789 58.2104 -0.000366211 37.4998 -0.000366211C16.7891 -0.000366211 -0.000244141 16.789 -0.000244141 37.4996C-0.000244141 58.2104 16.7891 74.9996 37.4998 74.9996Z" fill="#7D2AE7"/>
<path d="M37.4998 74.9996C58.2104 74.9996 74.9998 58.2104 74.9998 37.4996C74.9998 16.789 58.2104 -0.000366211 37.4998 -0.000366211C16.7891 -0.000366211 -0.000244141 16.789 -0.000244141 37.4996C-0.000244141 58.2104 16.7891 74.9996 37.4998 74.9996Z" fill="url(#paint0_radial_24_874)"/>
<path d="M37.4998 74.9996C58.2104 74.9996 74.9998 58.2104 74.9998 37.4996C74.9998 16.789 58.2104 -0.000366211 37.4998 -0.000366211C16.7891 -0.000366211 -0.000244141 16.789 -0.000244141 37.4996C-0.000244141 58.2104 16.7891 74.9996 37.4998 74.9996Z" fill="url(#paint1_radial_24_874)"/>
<path d="M37.4998 74.9996C58.2104 74.9996 74.9998 58.2104 74.9998 37.4996C74.9998 16.789 58.2104 -0.000366211 37.4998 -0.000366211C16.7891 -0.000366211 -0.000244141 16.789 -0.000244141 37.4996C-0.000244141 58.2104 16.7891 74.9996 37.4998 74.9996Z" fill="url(#paint2_radial_24_874)"/>
<path d="M37.4998 74.9996C58.2104 74.9996 74.9998 58.2104 74.9998 37.4996C74.9998 16.789 58.2104 -0.000366211 37.4998 -0.000366211C16.7891 -0.000366211 -0.000244141 16.789 -0.000244141 37.4996C-0.000244141 58.2104 16.7891 74.9996 37.4998 74.9996Z" fill="url(#paint3_radial_24_874)"/>
<path d="M53.6895 45.1923C53.3799 45.1923 53.1076 45.4536 52.8242 46.0245C49.6236 52.5143 44.0958 57.1063 37.6989 57.1063C30.3023 57.1063 25.7218 50.4293 25.7218 41.2051C25.7218 25.5801 34.4277 16.546 42.0743 16.546C45.6474 16.546 47.8296 18.7915 47.8296 22.3648C47.8296 26.6058 45.4201 28.8513 45.4201 30.3471C45.4201 31.0185 45.8377 31.425 46.6659 31.425C49.9931 31.425 53.8983 27.6018 53.8983 22.2007C53.8983 16.9638 49.3402 13.1144 41.6938 13.1144C29.0565 13.1144 17.8254 24.8304 17.8254 41.0409C17.8254 53.5888 24.9908 61.8807 36.0465 61.8807C47.781 61.8807 54.5661 50.2055 54.5661 46.416C54.5661 45.5768 54.1371 45.1923 53.6895 45.1923Z" fill="white"/>
<defs>
<radialGradient id="paint0_radial_24_874" cx="0" cy="0" r="1" gradientUnits="userSpaceOnUse" gradientTransform="translate(14.4869 66.4738) rotate(-49.416) scale(58.0062 58.0062)">
<stop stop-color="#6420FF"/>
<stop offset="1" stop-color="#6420FF" stop-opacity="0"/>
</radialGradient>
<radialGradient id="paint1_radial_24_874" cx="0" cy="0" r="1" gradientUnits="userSpaceOnUse" gradientTransform="translate(19.8549 8.52576) rotate(54.703) scale(65.4126 65.4126)">
<stop stop-color="#00C4CC"/>
<stop offset="1" stop-color="#00C4CC" stop-opacity="0"/>
</radialGradient>
<radialGradient id="paint2_radial_24_874" cx="0" cy="0" r="1" gradientUnits="userSpaceOnUse" gradientTransform="translate(14.4866 66.4733) rotate(-45.1954) scale(57.304 26.3549)">
<stop stop-color="#6420FF"/>
<stop offset="1" stop-color="#6420FF" stop-opacity="0"/>
</radialGradient>
<radialGradient id="paint3_radial_24_874" cx="0" cy="0" r="1" gradientUnits="userSpaceOnUse" gradientTransform="translate(30.6708 10.1049) rotate(66.5198) scale(59.0471 98.9168)">
<stop stop-color="#00C4CC" stop-opacity="0.725916"/>
<stop offset="0.0001" stop-color="#00C4CC"/>
<stop offset="1" stop-color="#00C4CC" stop-opacity="0"/>
</radialGradient>
</defs>
</svg>
