<svg width="67" height="76" viewBox="0 0 67 76" fill="none" xmlns="http://www.w3.org/2000/svg">
<path d="M66.6312 0.500488L60.6065 67.9926L33.5251 75.5001L6.51837 68.0032L0.5 0.500488H66.6312Z" fill="#264DE4"/>
<path d="M55.4485 63.6949L60.597 6.01971H33.5654V69.7617L55.4485 63.6949Z" fill="#2965F1"/>
<path d="M14.2969 31.0555L15.0388 39.3344H33.5655V31.0555H14.2969Z" fill="#EBEBEB"/>
<path d="M33.5655 14.2986H33.5369H12.8059L13.5585 22.5777H33.5655V14.2986Z" fill="#EBEBEB"/>
<path d="M33.5654 61.1702V52.5566L33.5291 52.5663L24.3089 50.0766L23.7194 43.4738H19.2391H15.4087L16.5686 56.4729L33.5273 61.1808L33.5654 61.1702Z" fill="#EBEBEB"/>
<path d="M43.7315 39.3342L42.7705 50.0714L33.5369 52.5636V61.1768L50.5091 56.4729L50.6336 55.0743L52.5791 33.2785L52.7811 31.0554L54.2757 14.2986H33.5369V22.5777H45.2027L44.4494 31.0554H33.5369V39.3342H43.7315Z" fill="white"/>
</svg>
