<svg width="51" height="75" viewBox="0 0 51 75" fill="none" xmlns="http://www.w3.org/2000/svg">
<path d="M12.9998 75.0007C19.8998 75.0007 25.4998 69.4004 25.4998 62.5004V50.0004H12.9998C6.09978 50.0004 0.499756 55.6004 0.499756 62.5004C0.499756 69.4004 6.09978 75.0007 12.9998 75.0007Z" fill="#0ACF83"/>
<path d="M0.499756 37.5003C0.499756 30.6003 6.09978 25.0002 12.9998 25.0002H25.4998V50.0002H12.9998C6.09978 50.0002 0.499756 44.4003 0.499756 37.5003Z" fill="#A259FF"/>
<path d="M0.499756 12.5004C0.499756 5.60048 6.09978 0.000488281 12.9998 0.000488281H25.4998V25.0005H12.9998C6.09978 25.0005 0.499756 19.4004 0.499756 12.5004Z" fill="#F24E1E"/>
<path d="M25.4998 0.000488281H37.9998C44.8998 0.000488281 50.4998 5.60048 50.4998 12.5004C50.4998 19.4004 44.8998 25.0005 37.9998 25.0005H25.4998V0.000488281Z" fill="#FF7262"/>
<path d="M50.4998 37.5003C50.4998 44.4003 44.8998 50.0002 37.9998 50.0002C31.0998 50.0002 25.4998 44.4003 25.4998 37.5003C25.4998 30.6003 31.0998 25.0002 37.9998 25.0002C44.8998 25.0002 50.4998 30.6003 50.4998 37.5003Z" fill="#1ABCFE"/>
</svg>
