<svg width="75" height="75" viewBox="0 0 75 75" fill="none" xmlns="http://www.w3.org/2000/svg">
<path d="M37.4999 0.925659C16.7918 0.925659 -0.000244141 17.7148 -0.000244141 38.4258C-0.000244141 54.9946 10.7447 69.0512 25.6448 74.0099C27.5188 74.3569 28.207 73.1963 28.207 72.2057C28.207 71.3117 28.172 68.3574 28.1561 65.224C17.7233 67.4924 15.5219 60.7994 15.5219 60.7994C13.8161 56.4649 11.3582 55.3125 11.3582 55.3125C7.95594 52.985 11.6147 53.0327 11.6147 53.0327C15.3804 53.2973 17.3633 56.8972 17.3633 56.8972C20.7078 62.6303 26.1359 60.9726 28.2758 60.0147C28.6123 57.5907 29.5843 55.9367 30.6566 55.0002C22.3275 54.0517 13.5713 50.8362 13.5713 36.4673C13.5713 32.3734 15.0363 29.0279 17.4353 26.4018C17.0459 25.4571 15.7625 21.6431 17.7986 16.4777C17.7986 16.4777 20.9475 15.4698 28.1138 20.3217C31.1048 19.4906 34.313 19.0742 37.4999 19.06C40.6868 19.0742 43.8973 19.4906 46.8943 20.3217C54.052 15.4698 57.1966 16.4777 57.1966 16.4777C59.2376 21.6431 57.9536 25.4571 57.5642 26.4018C59.9685 29.0279 61.4234 32.3731 61.4234 36.4673C61.4234 50.8703 52.6508 54.042 44.3006 54.9702C45.6455 56.134 46.844 58.4162 46.844 61.9147C46.844 66.9321 46.8005 70.9705 46.8005 72.2057C46.8005 73.2037 47.4755 74.3731 49.3766 74.0048C64.2683 69.0406 74.9998 54.989 74.9998 38.4258C74.9998 17.7148 58.2101 0.925659 37.4999 0.925659Z" fill="white"/>
<path d="M14.0449 54.3455C13.9626 54.5316 13.669 54.5876 13.4023 54.4599C13.1302 54.3375 12.9773 54.0834 13.0656 53.8964C13.1464 53.7046 13.44 53.6511 13.7114 53.7799C13.984 53.902 14.1393 54.1584 14.0449 54.3455ZM15.8895 55.9914C15.7107 56.1572 15.361 56.0802 15.1237 55.8181C14.8784 55.5567 14.8326 55.2072 15.014 55.0387C15.1984 54.8731 15.5375 54.9505 15.7834 55.2123C16.0287 55.4766 16.0766 55.8237 15.8895 55.9914ZM17.1551 58.0971C16.9251 58.2568 16.5492 58.1071 16.3172 57.7736C16.0875 57.4404 16.0875 57.0404 16.3222 56.8801C16.5551 56.7198 16.9251 56.8639 17.1604 57.1948C17.3898 57.5339 17.3901 57.9336 17.1551 58.0971ZM19.2951 60.5361C19.0894 60.7626 18.6518 60.702 18.3312 60.3927C18.0036 60.0903 17.9121 59.6612 18.1183 59.4345C18.3262 59.2074 18.7665 59.2712 19.0894 59.5779C19.415 59.8797 19.5142 60.312 19.2951 60.5361ZM22.0608 61.3596C21.9705 61.6532 21.5488 61.7867 21.1241 61.662C20.7 61.5335 20.4223 61.1894 20.508 60.8926C20.5962 60.597 21.0197 60.4579 21.4476 60.5915C21.8711 60.7194 22.149 61.0608 22.0608 61.3596ZM25.209 61.7088C25.2195 62.0182 24.8592 62.2746 24.4134 62.2803C23.9649 62.2899 23.6022 62.0397 23.5975 61.7355C23.5975 61.4232 23.9496 61.1691 24.3978 61.1617C24.8436 61.1529 25.209 61.4014 25.209 61.7088ZM28.3012 61.5903C28.3547 61.892 28.0447 62.202 27.6021 62.2843C27.1668 62.3637 26.7639 62.1776 26.7083 61.8785C26.6542 61.569 26.97 61.2594 27.4044 61.1791C27.848 61.102 28.2447 61.2835 28.3012 61.5903Z" fill="white"/>
</svg>
