<svg width="84" height="31" viewBox="0 0 84 31" fill="none" xmlns="http://www.w3.org/2000/svg">
<path d="M42.2088 9.19639C42.313 9.09569 42.3739 8.95839 42.3787 8.81329H42.3807C42.451 6.05329 41.8122 3.89749 40.4836 2.40509C39.0807 0.82979 36.9319 0.0208883 34.0965 0.000488281C31.2662 0.000488281 28.8281 0.884789 27.0452 2.55779C25.3589 4.14099 24.4074 6.33269 24.3645 8.72879C24.2922 12.8603 26.6264 15.4878 29.2295 18.0309C31.2448 20.1041 31.6146 21.1292 31.5943 22.2988C31.5698 23.6519 30.9259 24.4282 29.8266 24.4282C29.3732 24.4282 29.0095 24.2875 28.7486 24.0104C28.3411 23.5825 28.1608 22.8092 28.227 21.7742C28.238 21.705 28.2341 21.6341 28.2155 21.5667C28.2075 21.5379 28.197 21.51 28.184 21.4832C28.1665 21.4473 28.1447 21.4138 28.119 21.3829C28.0675 21.318 28.0022 21.2653 27.9278 21.2287C27.8535 21.1919 27.7719 21.1722 27.689 21.171H21.739C21.5939 21.1705 21.4543 21.2267 21.3499 21.3277C21.2455 21.4284 21.1845 21.566 21.1797 21.711C21.0401 24.58 21.7084 26.803 23.1664 28.318C24.603 29.8097 26.7629 30.5657 29.5902 30.5657C35.1266 30.5657 38.7648 27.1067 38.8596 21.7558C38.9177 18.4465 37.7103 15.9432 34.6976 13.117C32.4093 10.898 31.6055 9.60609 31.6309 8.18479C31.6533 6.91019 32.4195 6.18069 33.6075 6.18069C34.7955 6.18069 35.3762 6.99779 35.3762 8.67579C35.3762 9.04769 35.691 9.35339 36.068 9.35339H41.8203C41.9653 9.35359 42.1046 9.29709 42.2088 9.19639Z" fill="#FFFCE1"/>
<path d="M24.2587 14.2896V14.2764H24.2556C24.2607 13.9993 24.0681 13.7456 23.7951 13.71C23.7716 13.7048 23.7462 13.7048 23.7217 13.7048H13.1972V13.717C12.9251 13.7496 12.704 13.9342 12.65 14.1777L11.5537 18.9395C11.5392 19.0037 11.5396 19.0704 11.555 19.1343C11.5703 19.1982 11.6002 19.2579 11.6424 19.3084C11.6973 19.3731 11.7657 19.4251 11.8428 19.4607C11.9198 19.4962 12.0038 19.5144 12.0886 19.5141H13.6923C13.785 19.5141 13.9062 19.5276 13.95 19.5845C13.9918 19.6395 13.9888 19.7629 13.945 19.9218C13.6332 21.066 12.8915 22.3202 11.9704 23.0455C11.0484 23.7698 9.5262 24.2039 8.4595 23.5499C7.2563 22.8112 7.0525 21.0292 7.0026 19.7619C6.8976 17.0394 7.4305 14.306 8.4769 11.7895C9.2257 9.9881 10.6378 6.73809 13.0321 6.73809C14.3892 6.73809 15.0718 7.8587 15.1227 10.1613C15.124 10.2128 15.1345 10.2632 15.1534 10.3105C15.1745 10.3632 15.2061 10.4117 15.2468 10.4528C15.324 10.5304 15.428 10.5757 15.5374 10.5789H21.7829C21.9289 10.5789 22.069 10.5217 22.1735 10.4197C22.278 10.3177 22.3385 10.1789 22.3422 10.0329C22.3382 6.7033 21.5781 4.1604 20.0804 2.47119C18.6642 0.874595 16.6286 0.0748945 14.0357 0.0971945C5.512 0.0971945 1.0852 8.7094 0.14782 17.2444C-0.371731 21.7904 0.486109 25.564 2.5625 27.8688C4.1336 29.613 5.9858 30.4963 8.7326 30.4963C11.7901 30.4963 14.0784 29.8177 15.9348 28.3628C18.1171 26.6542 19.7697 23.8086 20.9902 19.6681C21.0038 19.6223 21.0317 19.5823 21.0699 19.5537C21.1081 19.5248 21.1545 19.5094 21.2022 19.5092H22.5256C22.8353 19.5092 23.1043 19.3124 23.1634 19.0435L24.2587 14.2896Z" fill="#FFFCE1"/>
<path fill-rule="evenodd" clip-rule="evenodd" d="M60.2085 29.559L60.2462 1.09971C60.2473 1.02851 60.2341 0.957612 60.2075 0.891512C60.1955 0.861912 60.1809 0.833314 60.1639 0.806414C60.1431 0.773314 60.1187 0.742714 60.091 0.714914C60.0678 0.691214 60.0424 0.670115 60.0154 0.651415C59.9841 0.629815 59.9505 0.611413 59.9151 0.597013C59.8492 0.569913 59.7785 0.556215 59.7072 0.556715H50.8047C50.5051 0.556715 50.3737 0.814414 50.2881 0.984514L37.3977 29.3846V29.3899L37.3927 29.3971C37.25 29.7463 37.521 30.1204 37.899 30.1204H44.1221C44.4583 30.1204 44.6814 30.0184 44.7904 29.8065L46.0263 26.8365C46.1781 26.4403 46.2066 26.4035 46.6386 26.4035H52.5845C52.9982 26.4035 53.0063 26.4117 53.0002 26.8161L52.8668 29.5774C52.8663 29.6078 52.8684 29.6381 52.8731 29.6679C52.8793 29.708 52.8902 29.7473 52.9054 29.7851C52.932 29.8513 52.9715 29.9112 53.0216 29.962C53.0717 30.0125 53.1314 30.0525 53.1972 30.0796C53.263 30.107 53.3335 30.1207 53.4047 30.1204H59.692C59.7698 30.1214 59.8469 30.1052 59.9178 30.0731C59.9887 30.0411 60.0518 29.994 60.1025 29.9348C60.1463 29.8836 60.1785 29.8234 60.1968 29.7585C60.215 29.6936 60.2191 29.6257 60.2085 29.559ZM49.1949 20.0574C49.1479 20.0574 49.101 20.0559 49.0543 20.0522C49.0325 20.0504 49.0113 20.0437 48.9923 20.033C48.9733 20.0221 48.9569 20.0071 48.9443 19.9892C48.9383 19.9808 48.9331 19.9716 48.929 19.9621C48.9245 19.9517 48.9213 19.9407 48.9192 19.9295C48.9171 19.9173 48.9164 19.9052 48.9172 19.893C48.9178 19.8833 48.9194 19.8738 48.9218 19.8646C48.9288 19.8412 48.9375 19.8129 48.9486 19.7798C48.9567 19.7554 48.966 19.7285 48.9768 19.6997L53.4353 8.66761C53.4753 8.55891 53.5216 8.45241 53.5738 8.34871C53.6462 8.20002 53.7338 8.18981 53.7613 8.29991C53.7847 8.39151 53.2499 19.6273 53.2499 19.6273C53.2081 20.0482 53.1887 20.0653 52.774 20.1002L49.1989 20.0594H49.1908L49.1949 20.0574Z" fill="#FFFCE1"/>
<path fill-rule="evenodd" clip-rule="evenodd" d="M68.1644 0.556713H72.8908L72.8959 0.553711C79.8668 0.553711 83.3472 3.71321 83.2371 9.94831C83.1087 17.2546 78.6564 22.6239 71.9525 23.8616C70.9999 24.037 70.0309 24.1051 69.063 24.1002L65.8262 24.0857C65.7731 24.0855 65.722 24.1061 65.6839 24.1429C65.6458 24.18 65.6237 24.2305 65.6224 24.2835C65.6217 24.3193 65.6312 24.3546 65.6498 24.3852C65.6684 24.4158 65.6953 24.4407 65.7273 24.4566L66.1216 24.6616L67.1405 25.1934L68.1644 25.7262C68.2702 25.7814 68.3762 25.8366 68.4823 25.8911C68.7085 26.0095 68.7961 26.205 68.7452 26.4577L68.0279 29.6946C67.9688 29.9644 67.7518 30.1204 67.4339 30.1204H61.5267C61.442 30.1204 61.3583 30.102 61.2814 30.0664C61.2045 30.0309 61.1363 29.9791 61.0815 29.9147C61.0392 29.864 61.0091 29.8043 60.9936 29.7401C60.978 29.6759 60.9774 29.6092 60.9918 29.5448L67.5694 0.98671C67.6346 0.68921 67.9148 0.556713 68.1644 0.556713ZM71.1557 17.5511H71.2821C74.3844 17.4257 76.0757 13.7598 76.1379 10.2031C76.1735 8.14821 75.4236 6.94481 74.0788 6.90401H69.7579C69.7055 6.90401 69.6552 6.92441 69.6177 6.96101C69.5802 6.99751 69.5585 7.04731 69.5572 7.09981C69.5563 7.13561 69.5654 7.17121 69.5836 7.20201C69.6018 7.23311 69.6283 7.25821 69.6601 7.27491C69.6601 7.27491 72.3926 8.71561 72.5801 8.81961C72.7268 8.89991 72.7288 9.03651 72.6809 9.27401C72.6804 9.27921 72.2622 11.1174 71.8217 13.0556C71.3301 15.2186 70.8107 17.5066 70.8134 17.5103C70.8215 17.5205 70.8715 17.5511 71.1557 17.5511Z" fill="#FFFCE1"/>
</svg>
