<svg width="75" height="76" viewBox="0 0 75 76" fill="none" xmlns="http://www.w3.org/2000/svg">
<g clip-path="url(#clip0_24_718)">
<path d="M10.5161 68.026L4.5 0.500488H70.64L64.624 67.9895L37.5153 75.5001" fill="#E44D26"/>
<path d="M37.5698 69.7584V6.04297H64.6056L59.4464 63.6511" fill="#F16529"/>
<path d="M16.7874 14.301H37.57V22.5776H25.8661L26.6318 31.0548H37.57V39.3132H19.0479L16.7874 14.301ZM19.4125 43.4697H27.7256L28.3089 50.0873L37.57 52.5667V61.2079L20.5793 56.468" fill="#EBEBEB"/>
<path d="M58.2794 14.301H37.5332V22.5777H57.5137L58.2794 14.301ZM56.7663 31.0548H37.5332V39.3314H47.7422L46.7761 50.0874L37.5332 52.5667V61.1715L54.4875 56.468" fill="white"/>
</g>
<defs>
<clipPath id="clip0_24_718">
<rect width="75" height="75" fill="white" transform="translate(0 0.5)"/>
</clipPath>
</defs>
</svg>
