<svg width="57" height="75" viewBox="0 0 57 75" fill="none" xmlns="http://www.w3.org/2000/svg">
<path d="M18.5645 58.0022C18.5645 58.0022 15.6986 59.6688 20.6042 60.2328C26.5475 60.9108 29.5848 60.8136 36.1343 59.574C36.1343 59.574 37.8563 60.6537 40.2608 61.5889C25.579 67.8813 7.03246 61.2243 18.5645 58.0022ZM16.7705 49.7909C16.7705 49.7909 13.556 52.1704 18.4653 52.6782C24.814 53.3331 29.8276 53.3867 38.5032 51.7161C38.5032 51.7161 39.7032 52.9326 41.5901 53.598C23.8385 58.7887 4.06665 54.0073 16.7705 49.7909Z" fill="#5382A1"/>
<path d="M31.8948 35.8619C35.5126 40.0269 30.9444 43.7749 30.9444 43.7749C30.9444 43.7749 40.1301 39.033 35.9115 33.0947C31.9716 27.5574 28.9499 24.8056 45.3072 15.3191C45.3072 15.3191 19.6317 21.7318 31.8948 35.8619Z" fill="#E76F00"/>
<path d="M51.3131 64.0758C51.3131 64.0758 53.4341 65.8232 48.9772 67.1753C40.5027 69.7427 13.7049 70.5179 6.26047 67.2776C3.58455 66.1136 8.60287 64.498 10.1814 64.1588C11.8276 63.8018 12.7685 63.8684 12.7685 63.8684C9.79245 61.7718 -6.46742 67.985 4.50937 69.7641C34.4443 74.6188 59.0778 67.5783 51.3131 64.0758ZM19.9426 41.2831C19.9426 41.2831 6.3117 44.5208 15.1157 45.6963C18.8329 46.194 26.2432 46.0815 33.1458 45.503C38.7869 45.0275 44.4514 44.0155 44.4514 44.0155C44.4514 44.0155 42.4622 44.8674 41.0232 45.85C27.1811 49.4906 0.440624 47.797 8.13885 44.0731C14.6493 40.9261 19.9426 41.2831 19.9426 41.2831ZM44.3951 54.9511C58.4665 47.6391 51.9604 40.6125 47.4193 41.5593C46.3063 41.7908 45.8101 41.9915 45.8101 41.9915C45.8101 41.9915 46.2233 41.3444 47.0125 41.0642C55.996 37.9057 62.9051 50.3794 44.1124 55.3196C44.1124 55.3198 44.3302 55.1252 44.3951 54.9511Z" fill="#5382A1"/>
<path d="M35.9117 0.00070543C35.9117 0.00070543 43.7046 7.79645 28.5204 19.7834C16.3446 29.3993 25.7439 34.8819 28.5155 41.1462C21.4081 34.7337 16.1921 29.0886 19.6915 23.8348C24.8274 16.1223 39.0558 12.3834 35.9117 0.00070543Z" fill="#E76F00"/>
<path d="M21.3253 74.7645C34.8319 75.6292 55.5727 74.2848 56.0639 67.8939C56.0639 67.8939 55.1198 70.3169 44.9015 72.2408C33.3733 74.4101 19.155 74.1569 10.7219 72.7665C10.7221 72.7665 12.448 74.1953 21.3253 74.7645Z" fill="#5382A1"/>
</svg>
