<svg width="75" height="76" viewBox="0 0 75 76" fill="none" xmlns="http://www.w3.org/2000/svg">
<path d="M75 0.500488H0V75.5001H75V0.500488Z" fill="#F7DF1E"/>
<path d="M50.3809 59.0944C51.8916 61.5611 53.857 63.3742 57.3333 63.3742C60.2535 63.3742 62.119 61.9146 62.119 59.898C62.119 57.4813 60.2023 56.6254 56.9881 55.2194L55.2261 54.4635C50.1404 52.2968 46.7618 49.5825 46.7618 43.8444C46.7618 38.5587 50.7892 34.5349 57.0832 34.5349C61.5642 34.5349 64.7857 36.0944 67.1071 40.1778L61.6189 43.7016C60.4106 41.5349 59.107 40.6813 57.0832 40.6813C55.019 40.6813 53.7106 41.9909 53.7106 43.7016C53.7106 45.8159 55.0201 46.6718 58.044 47.9814L59.8059 48.7361C65.794 51.3039 69.175 53.9218 69.175 59.8075C69.175 66.1527 64.1904 69.6289 57.4963 69.6289C50.9511 69.6289 46.7225 66.5099 44.6535 62.4218L50.3809 59.0944ZM25.4845 59.7051C26.5916 61.6694 27.5987 63.3301 30.0202 63.3301C32.3356 63.3301 33.7963 62.4242 33.7963 58.9016V34.9373H40.8439V58.9968C40.8439 66.2944 36.5654 69.6159 30.3202 69.6159C24.6773 69.6159 21.4095 66.6956 19.7476 63.1784L25.4845 59.7051Z" fill="black"/>
</svg>
