<svg width="35" height="75" viewBox="0 0 35 75" fill="none" xmlns="http://www.w3.org/2000/svg">
<path d="M17.1091 0.2052L19.1106 3.9643C19.5605 4.658 20.048 5.27201 20.6221 5.84384C22.3055 7.50618 23.8746 9.28046 25.3187 11.1544C28.7098 15.6072 30.9972 20.5521 32.6307 25.9002C33.6103 29.1671 34.1423 32.5184 34.1821 35.9073C34.3462 46.0385 30.873 54.7379 23.8704 61.9678C22.7313 63.1143 21.5008 64.1661 20.191 65.1129C19.4972 65.1129 19.1692 64.5809 18.8833 64.0911C18.3625 63.1828 18.016 62.1853 17.8615 61.1499C17.6154 59.9242 17.4536 58.6985 17.5333 57.4329V56.8611C17.4771 56.7393 16.8654 0.49346 17.1091 0.2052Z" fill="#599636"/>
<path d="M17.1091 0.0811145C17.0271 -0.082936 16.9451 0.0412735 16.8631 0.120955C16.9029 0.941207 16.617 1.6724 16.1694 2.37079C15.6772 3.06449 15.0257 3.59648 14.3719 4.16831C10.7393 7.31339 7.88009 11.1123 5.59042 15.3612C2.54377 21.0795 0.973568 27.208 0.528293 33.6599C0.324443 35.9871 1.26419 44.199 1.99777 46.5683C3.99914 52.8585 7.59419 58.1292 12.2509 62.7038C13.3945 63.8053 14.6179 64.8271 15.8835 65.8091C16.2514 65.8091 16.2913 65.481 16.3756 65.2372C16.5369 64.7157 16.6599 64.1831 16.7435 63.6436L17.5638 57.5175L17.1091 0.0811145Z" fill="#6CAC48"/>
<path d="M19.1104 67.6018C19.1925 66.6644 19.6424 65.8863 20.1323 65.1106C19.6401 64.9067 19.2745 64.5012 18.9886 64.049C18.742 63.6207 18.5379 63.1694 18.3792 62.7014C17.8074 60.9859 17.6856 59.1861 17.5215 57.4331V56.3715C17.3176 56.5355 17.2754 57.9229 17.2754 58.1291C17.1561 59.9819 16.9103 61.8243 16.5396 63.6435C16.4177 64.3794 16.3356 65.1129 15.8833 65.7668C15.8833 65.8488 15.8833 65.9308 15.9232 66.0527C16.659 68.2182 16.8606 70.4235 16.9848 72.6709V73.4912C16.9848 74.4708 16.945 74.2646 17.7582 74.5926C18.0863 74.7145 18.4519 74.7567 18.78 75.0008C19.0261 75.0008 19.0659 74.7966 19.0659 74.6325L18.9441 73.2849V69.5259C18.9042 68.8697 19.0261 68.2182 19.1081 67.6041L19.1104 67.6018Z" fill="#C2BFBF"/>
</svg>
