<svg width="76" height="75" viewBox="0 0 76 75" fill="none" xmlns="http://www.w3.org/2000/svg">
<path d="M69.5828 57.8002C65.5022 57.6969 62.3395 58.1112 59.687 59.2502C58.9218 59.5606 57.6974 59.5609 57.5954 60.5448C58.0035 60.9591 58.0546 61.6323 58.4116 62.2016C59.0244 63.237 60.0948 64.6352 61.0641 65.3605C62.1351 66.1887 63.2067 67.017 64.3285 67.7419C66.3181 68.9847 68.5628 69.7095 70.5011 70.9523C71.6237 71.6766 72.7452 72.6094 73.8675 73.3858C74.4287 73.7995 74.7855 74.4733 75.5 74.7319V74.5769C75.1426 74.1105 75.0406 73.4376 74.6838 72.9198C74.1742 72.402 73.6635 71.9358 73.1533 71.418C71.6742 69.399 69.8379 67.6384 67.8486 66.1887C66.2164 65.0494 62.6453 63.4962 61.9825 61.5801C61.9825 61.5801 61.9311 61.5287 61.8804 61.4769C63.0024 61.3734 64.3285 60.9591 65.4001 60.6483C67.1344 60.182 68.7156 60.2859 70.5011 59.8198C71.317 59.6127 72.1332 59.3538 72.9492 59.0948V58.629C72.0315 57.6969 71.3683 56.4544 70.399 55.5741C67.7976 53.2953 64.9408 51.0691 61.9825 49.2052C60.4009 48.1695 58.3603 47.4963 56.6771 46.6163C56.0656 46.3053 55.045 46.1502 54.6881 45.6324C53.7695 44.4934 53.2593 42.9919 52.5965 41.6455C51.1176 38.7974 49.6889 35.6392 48.4135 32.6362C47.4958 30.6167 46.9347 28.5971 45.8123 26.7334C40.5583 17.931 34.8452 12.5978 26.0718 7.36784C24.1842 6.28067 21.9398 5.8146 19.5423 5.24528C18.2676 5.19319 16.9919 5.08992 15.7168 5.03784C14.9006 4.67535 14.0843 3.69174 13.3701 3.22569C10.4632 1.36144 2.96416 -2.67685 0.821817 2.65635C-0.555595 6.02175 2.86242 9.33537 4.03519 11.0445C4.90304 12.2352 6.02479 13.5813 6.63697 14.9277C6.99408 15.8075 7.09582 16.7402 7.45293 17.6721C8.26947 19.9497 9.0341 22.4874 10.1057 24.6105C10.6669 25.6978 11.2788 26.8367 11.993 27.8206C12.4012 28.39 13.1151 28.6492 13.2684 29.581C12.5545 30.6167 12.5031 32.1702 12.0947 33.4645C10.2585 39.3156 10.973 46.5645 13.5742 50.862C14.3902 52.156 16.3287 55.0047 18.9302 53.9169C21.2259 52.9851 20.7157 50.0338 21.3783 47.4448C21.5319 46.8228 21.43 46.4092 21.7357 45.9949V46.0987C22.45 47.5481 23.1639 48.9465 23.8271 50.3962C25.4086 52.9331 28.1628 55.5741 30.4581 57.3348C31.6828 58.2663 32.6518 59.8716 34.1823 60.4412V60.2856H34.08C33.7739 59.8195 33.3148 59.6127 32.9069 59.2499C31.9889 58.3183 30.9684 57.1791 30.2544 56.1434C28.1124 53.2434 26.2245 50.0334 24.5413 46.7196C23.7253 45.1148 23.0108 43.3542 22.3479 41.7491C22.0416 41.1271 22.0416 40.1956 21.5317 39.8852C20.7664 41.0242 19.6444 42.0081 19.0833 43.4059C18.1145 45.6324 18.0122 48.3766 17.6551 51.2242C17.451 51.2766 17.5527 51.2242 17.4508 51.3283C15.8188 50.9135 15.2577 49.2052 14.6452 47.7552C13.1148 44.0791 12.8597 38.1763 14.1864 33.9306C14.5435 32.8431 16.0739 29.4259 15.4618 28.3903C15.1557 27.4063 14.1351 26.8367 13.5742 26.0602C12.9113 25.0763 12.1968 23.8341 11.7379 22.7463C10.5135 19.8467 9.9014 16.6364 8.57525 13.7367C7.96308 12.3903 6.89234 10.9927 6.02479 9.7499C5.05579 8.35205 3.98447 7.36784 3.21924 5.71104C2.96446 5.1417 2.60706 4.20959 3.01518 3.58818C3.11721 3.1739 3.32098 3.01884 3.72939 2.91528C4.3926 2.34535 6.28016 3.07033 6.94277 3.38103C8.83033 4.15721 10.4116 4.88279 11.993 5.96996C12.7069 6.4878 13.4722 7.47171 14.3902 7.7306H15.4615C17.0939 8.09285 18.9299 7.83417 20.4604 8.3C23.1642 9.17997 25.6123 10.4746 27.806 11.8728C34.4884 16.1703 39.9969 22.2803 43.721 29.581C44.3331 30.7714 44.5879 31.8595 45.1492 33.1018C46.2207 35.6392 47.5468 38.2281 48.6176 40.7134C49.6889 43.1467 50.7089 45.6324 52.2393 47.652C53.0046 48.7389 56.065 49.3088 57.4423 49.8784C58.4626 50.3442 60.0441 50.7587 60.9621 51.328C62.6963 52.4149 64.4305 53.6583 66.063 54.8488C66.8793 55.4702 69.4295 56.7649 69.5828 57.8002Z" fill="#00546B"/>
<path d="M17.5525 12.8042C16.6855 12.8042 16.0737 12.9084 15.4614 13.0634V13.167H15.5634C15.9719 13.9955 16.6855 14.5651 17.1954 15.2898C17.6038 16.1181 17.9606 16.9469 18.369 17.7755C18.4197 17.7234 18.4707 17.6719 18.4707 17.6719C19.1853 17.1537 19.542 16.3255 19.542 15.0827C19.236 14.7205 19.185 14.358 18.9299 13.9955C18.6241 13.4774 17.9606 13.2187 17.5525 12.8042Z" fill="#00546B"/>
</svg>
