<svg width="69" height="75" viewBox="0 0 69 75" fill="none" xmlns="http://www.w3.org/2000/svg">
<path d="M31.2089 0.800634C33.0685 -0.263821 35.4907 -0.26863 37.3487 0.800634C46.6964 6.08257 56.0471 11.3562 65.3932 16.6413C67.151 17.6316 68.3269 19.5879 68.3091 21.6135V53.3916C68.3221 55.501 67.0301 57.5041 65.1755 58.4718C55.8585 63.7247 46.5464 68.9839 37.231 74.2367C35.3329 75.3219 32.862 75.2386 31.0232 74.0642C28.23 72.4449 25.432 70.8336 22.6385 69.216C22.0676 68.8757 21.4241 68.6049 21.0211 68.0514C21.3774 67.5711 22.0145 67.5113 22.5322 67.3016C23.6981 66.9309 24.769 66.3357 25.8401 65.7582C26.111 65.5728 26.4416 65.6439 26.7013 65.8098C29.0898 67.1793 31.4573 68.5886 33.8538 69.945C34.3651 70.2402 34.8827 69.8483 35.3198 69.6047C44.4626 64.4373 53.6166 59.2895 62.7579 54.1206C63.0966 53.9576 63.2838 53.598 63.2563 53.227C63.2627 42.7441 63.2579 32.2593 63.2595 21.7764C63.2982 21.3554 63.0546 20.9683 62.674 20.796C53.3893 15.5673 44.1095 10.3305 34.8264 5.10038C34.6655 4.98981 34.475 4.93049 34.2799 4.9302C34.0847 4.92992 33.894 4.98868 33.7328 5.09878C24.4498 10.3305 15.1715 15.5721 5.8885 20.8006C5.50922 20.9732 5.2546 21.3538 5.29975 21.7764C5.3014 32.2593 5.29975 42.7441 5.29975 53.2287C5.2837 53.4096 5.32345 53.5913 5.41367 53.749C5.50397 53.9068 5.6404 54.0331 5.80465 54.111C8.28182 55.5157 10.7623 56.9106 13.2411 58.3105C14.6375 59.0622 16.3522 59.5088 17.8907 58.9329C19.2485 58.446 20.2002 57.0604 20.1743 55.6188C20.1872 45.1971 20.168 34.7736 20.1839 24.3535C20.15 23.8908 20.5889 23.5086 21.0387 23.5521C22.229 23.5441 23.4209 23.5362 24.6111 23.5554C25.108 23.5441 25.4498 24.0423 25.3884 24.5085C25.3836 34.9962 25.4012 45.4842 25.3804 55.9719C25.3836 58.767 24.2353 61.8084 21.6499 63.176C18.4648 64.826 14.528 64.476 11.3814 62.8939C8.65742 61.5343 6.05785 59.9298 3.38216 58.4732C1.52276 57.5108 0.237142 55.4997 0.25023 53.3919V21.6135C0.23073 19.5459 1.45331 17.5541 3.26596 16.5783C12.5813 11.3212 21.8951 6.06013 31.2089 0.800634Z" fill="#8CC84B"/>
<path d="M39.3356 22.8134C43.3984 22.5519 47.7478 22.6585 51.4039 24.66C54.2345 26.1938 55.8038 29.4128 55.8537 32.5575C55.7747 32.9817 55.3312 33.2157 54.9263 33.1866C53.7475 33.185 52.5685 33.2026 51.3897 33.1786C50.8897 33.1978 50.599 32.7368 50.5363 32.2947C50.1976 30.7901 49.377 29.2998 47.9608 28.574C45.7867 27.4856 43.2659 27.5403 40.8953 27.563C39.1647 27.6549 37.3036 27.8048 35.8375 28.8224C34.7119 29.5934 34.3699 31.1495 34.7717 32.4029C35.1505 33.3028 36.1893 33.5931 37.0392 33.8608C41.9354 35.1413 47.1239 35.0139 51.9266 36.6992C53.915 37.3862 55.8601 38.7218 56.5407 40.8036C57.4311 43.5939 57.0408 46.9291 55.0556 49.1692C53.4457 51.0125 51.1009 52.0158 48.7623 52.5607C45.6513 53.2544 42.4227 53.2721 39.2632 52.964C36.2923 52.6253 33.2008 51.8448 30.9073 49.8206C28.9462 48.1178 27.9883 45.4646 28.0834 42.9037C28.1061 42.4712 28.5366 42.1697 28.9509 42.2052C30.1381 42.1956 31.3251 42.1924 32.5122 42.2068C32.9863 42.1729 33.3378 42.5826 33.3621 43.0295C33.5812 44.4631 34.1199 45.9677 35.37 46.8177C37.7826 48.3742 40.8098 48.2676 43.5724 48.3112C45.861 48.2096 48.4301 48.179 50.2978 46.6663C51.2831 45.8035 51.5751 44.36 51.3088 43.1182C51.0203 42.0698 49.9235 41.5812 48.9817 41.2617C44.1482 39.7328 38.9018 40.2875 34.1151 38.5586C32.1718 37.8718 30.2927 36.5733 29.5461 34.5769C28.5043 31.7513 28.9817 28.2564 31.175 26.092C33.3135 23.939 36.4006 23.1102 39.3356 22.8134Z" fill="#8CC84B"/>
</svg>
