<svg width="76" height="75" viewBox="0 0 76 75" fill="none" xmlns="http://www.w3.org/2000/svg">
<path d="M67.6796 14.58C63.1462 8.70957 56.9736 4.31534 49.9426 1.95311C42.9116 -0.409118 35.338 -0.633231 28.1797 1.30912C21.0213 3.25146 14.5997 7.27302 9.72703 12.8652C4.85441 18.4573 1.74957 25.3689 0.805212 32.7257C-0.139146 40.0826 1.1194 47.5542 4.42168 54.1957C7.72396 60.8373 12.9217 66.3503 19.3573 70.0377C25.7931 73.725 33.1777 75.4209 40.5774 74.9112C47.977 74.4013 55.0593 71.7085 60.9285 67.1733C77.3113 54.5125 80.3345 30.9686 67.6784 14.58H67.6796Z" fill="#FF6C37"/>
<path d="M50.6477 23.894L34.8357 39.8314L30.3674 35.2377C45.9297 19.6753 47.4918 21.0815 50.6488 23.894H50.6477Z" fill="white"/>
<path d="M34.8357 40.2673C34.6956 40.2638 34.5619 40.2082 34.4607 40.1114L29.9607 35.6114C29.8594 35.5066 29.8027 35.3665 29.8027 35.2207C29.8027 35.0748 29.8594 34.9347 29.9607 34.8298C45.304 19.4866 47.398 20.2049 51.0226 23.4862C51.0833 23.5348 51.1318 23.5968 51.1644 23.6674C51.1969 23.7379 51.2126 23.8151 51.2101 23.8928C51.2335 24.0451 51.175 24.201 51.0543 24.2995L35.2423 40.1126C35.1314 40.2142 34.9861 40.27 34.8357 40.2685V40.2673ZM31.1478 35.2364L34.8357 38.9243L49.8355 23.9245C49.3177 23.2754 48.5786 22.84 47.7599 22.7017C46.9411 22.5633 46.1001 22.7317 45.3977 23.1745C42.679 24.3932 38.3044 28.1115 31.1478 35.2364Z" fill="#FF6C37"/>
<path d="M39.3672 44.2374L35.0547 39.8313L50.8667 24.2057C55.1171 28.3623 48.8042 35.2997 39.3672 44.2362V44.2374Z" fill="white"/>
<path d="M39.3674 44.8C39.2291 44.789 39.0977 44.7344 38.9924 44.6441L34.5862 40.3317C34.5201 40.1714 34.5201 39.9915 34.5862 39.8313C34.5393 39.6998 34.5393 39.5561 34.5862 39.4247L50.3981 23.6127C50.5081 23.5094 50.6533 23.4519 50.8042 23.4519C50.9551 23.4519 51.1003 23.5094 51.2102 23.6127C51.7223 24.084 52.1269 24.6601 52.3964 25.3017C52.666 25.9433 52.7942 26.6354 52.7723 27.3311C52.7723 31.5497 47.9595 36.8618 39.7728 44.6125C39.6635 44.7207 39.5195 44.7871 39.3662 44.8H39.3674ZM35.867 39.8313L39.3978 43.361C45.6474 37.4548 51.6169 31.3611 51.6473 27.2361C51.6813 26.3617 51.3923 25.5053 50.8352 24.8303L35.867 39.8313Z" fill="#FF6C37"/>
<path d="M30.4917 35.3313L33.617 38.4567C33.637 38.4742 33.6529 38.4959 33.6639 38.5201C33.6748 38.5444 33.6805 38.5707 33.6805 38.5973C33.6805 38.6239 33.6748 38.6502 33.6639 38.6744C33.6529 38.6987 33.637 38.7203 33.617 38.7379L27.0229 40.1442C26.8899 40.1729 26.751 40.1573 26.6275 40.0998C26.5041 40.0423 26.4028 39.9461 26.3392 39.8258C26.2754 39.7054 26.2528 39.5675 26.2747 39.4331C26.2966 39.2987 26.3619 39.1752 26.4605 39.0813L30.3042 35.2692C30.3042 35.2692 30.4296 35.2692 30.4917 35.3313Z" fill="white"/>
<path d="M26.8669 40.7688C26.6586 40.7661 26.4544 40.7102 26.2738 40.6062C26.0933 40.5021 25.9425 40.3536 25.8357 40.1746C25.7155 39.948 25.672 39.6885 25.7114 39.4351C25.7509 39.1816 25.8714 38.9478 26.0548 38.7684L29.8669 34.9247C30.0043 34.8018 30.1823 34.7339 30.3667 34.7339C30.5511 34.7339 30.729 34.8018 30.8665 34.9247L33.9919 38.05C34.177 38.2258 34.2496 38.4918 34.1794 38.7379C34.109 38.984 33.9028 39.1797 33.6485 39.2383L27.0544 40.6446L26.8669 40.7688ZM30.3673 36.0192L26.8365 39.55L32.6805 38.2997L30.3673 36.0192Z" fill="#FF6C37"/>
<path d="M59.0548 15.112C56.7931 12.93 53.2399 12.8386 50.8681 14.8976C48.4962 16.9565 48.0907 20.4909 49.9375 23.0338C51.7845 25.5768 55.2661 26.2893 57.9615 24.6744L53.711 20.424L59.0548 15.112Z" fill="white"/>
<path d="M54.8359 26.1111C53.5364 26.0945 52.2707 25.6958 51.1962 24.9648C50.1218 24.2338 49.2863 23.2028 48.7937 22.0002C48.3014 20.7985 48.1724 19.479 48.4223 18.2048C48.6722 16.9304 49.2902 15.7574 50.1999 14.8307C51.4511 13.6026 53.1342 12.9146 54.8874 12.9146C56.6406 12.9146 58.3238 13.6026 59.5749 14.8307C59.6945 14.9315 59.7624 15.0803 59.7624 15.2374C59.7621 15.3146 59.7452 15.3909 59.7129 15.4611C59.6806 15.5312 59.6335 15.5936 59.5749 15.644L54.5124 20.4252L58.3562 24.2069C58.4185 24.2663 58.4652 24.3401 58.4924 24.4219C58.5196 24.5036 58.5263 24.5907 58.512 24.6756C58.5028 24.7575 58.4756 24.8364 58.4325 24.9067C58.3894 24.977 58.3313 25.0369 58.2624 25.0823C57.2298 25.7277 56.0427 26.0839 54.8253 26.1135L54.8359 26.1111ZM54.8359 13.9859C52.6093 13.9976 50.6171 15.337 49.7816 17.3843C48.9461 19.4315 49.4007 21.7881 50.9617 23.3608C51.7381 24.1417 52.7322 24.6699 53.8139 24.8763C54.8956 25.0827 56.0144 24.9576 57.0238 24.5174L53.3359 20.8295C53.2772 20.7826 53.2299 20.7232 53.1974 20.6555C53.1649 20.5879 53.148 20.5138 53.148 20.4387C53.148 20.3636 53.1649 20.2895 53.1974 20.2219C53.2299 20.1542 53.2772 20.0947 53.3359 20.0479L58.2109 15.1413C57.2418 14.3986 56.0568 13.9925 54.8359 13.9847V13.9859Z" fill="#FF6C37"/>
<path d="M59.1483 15.2057L53.8047 20.5177L58.0549 24.768C58.4827 24.5225 58.8811 24.2288 59.242 23.8927C60.356 22.7152 60.9689 21.151 60.9514 19.5303C60.934 17.9094 60.2874 16.3588 59.1483 15.2057Z" fill="white"/>
<path d="M57.9602 25.2369C57.89 25.2408 57.8198 25.2287 57.755 25.2017C57.69 25.1748 57.632 25.1335 57.5852 25.0811L53.3348 20.8307C53.2763 20.7838 53.2289 20.7243 53.1964 20.6567C53.1638 20.589 53.147 20.5149 53.147 20.4399C53.147 20.3649 53.1638 20.2908 53.1964 20.223C53.2289 20.1554 53.2763 20.096 53.3348 20.0491L58.6469 14.8308C58.6982 14.7534 58.7679 14.6899 58.8497 14.646C58.9315 14.6022 59.0228 14.5792 59.1157 14.5792C59.2085 14.5792 59.2999 14.6022 59.3816 14.646C59.4635 14.6899 59.5331 14.7534 59.5844 14.8308C60.2081 15.4418 60.7034 16.1711 61.0417 16.976C61.3799 17.7809 61.5541 18.6452 61.5541 19.5182C61.5541 20.3913 61.3799 21.2556 61.0417 22.0605C60.7034 22.8654 60.2081 23.5947 59.5844 24.2057C59.2166 24.5958 58.7957 24.9324 58.334 25.2053C58.2178 25.2639 58.0835 25.2752 57.959 25.2369H57.9602ZM54.5231 20.4252L58.054 23.9561C58.2968 23.7858 58.5268 23.5978 58.7418 23.3936C59.7798 22.3584 60.3644 20.9536 60.3672 19.4877C60.3696 18.1759 59.8915 16.9086 59.0231 15.9253L54.5231 20.4252Z" fill="#FF6C37"/>
<path d="M51.3041 24.5502C50.8808 24.1528 50.322 23.9315 49.7414 23.9315C49.1607 23.9315 48.602 24.1528 48.1787 24.5502L34.0237 38.6736L36.3674 41.049L51.3357 27.9241C51.5639 27.7053 51.745 27.442 51.8678 27.1507C51.9905 26.8593 52.0523 26.5459 52.0493 26.2297C52.0463 25.9135 51.9787 25.6013 51.8505 25.3123C51.7223 25.0232 51.5363 24.7635 51.3041 24.5491V24.5502Z" fill="white"/>
<path d="M36.242 41.6125C36.102 41.6091 35.9683 41.5535 35.867 41.4567L33.4917 39.0814C33.3904 38.9764 33.3337 38.8363 33.3337 38.6905C33.3337 38.5447 33.3904 38.4046 33.4917 38.2997L47.6478 24.2057C48.0556 23.7985 48.5762 23.5231 49.1424 23.4154C49.7085 23.3076 50.2939 23.3724 50.8228 23.6014C51.3516 23.8304 51.7994 24.213 52.1082 24.6996C52.417 25.1861 52.5724 25.7542 52.5544 26.3302C52.5382 26.7212 52.4441 27.1051 52.2777 27.4592C52.1113 27.8134 51.8758 28.1307 51.5853 28.3927L36.617 41.5177C36.5082 41.5947 36.3744 41.6281 36.242 41.6114V41.6125ZM34.5862 38.6735L36.1483 40.2673L50.8353 27.4858C51.1986 27.1693 51.4153 26.717 51.4294 26.2354C51.4435 25.7537 51.2536 25.2826 50.8986 24.9545C50.5707 24.628 50.1268 24.4447 49.664 24.4447C49.2013 24.4447 48.7573 24.628 48.4294 24.9545L34.5862 38.6735Z" fill="#FF6C37"/>
<path d="M23.0549 54.768C23.0149 54.8224 22.9934 54.8881 22.9934 54.9555C22.9934 55.023 23.0149 55.0887 23.0549 55.143L23.6795 57.8617C23.7046 58.0217 23.6809 58.1856 23.6114 58.3318C23.542 58.4782 23.4302 58.6002 23.2905 58.6821C23.1512 58.7635 22.9897 58.7986 22.8293 58.7824C22.6688 58.7662 22.5176 58.6995 22.3975 58.5918L18.1167 54.4669L31.4607 41.0173H36.086L39.2113 44.1427C34.3361 48.4053 28.9001 51.9802 23.0549 54.768Z" fill="white"/>
<path d="M22.7737 59.3616C22.4197 59.3545 22.0705 59.2093 21.8362 58.9549L17.7428 54.8616C17.6842 54.8147 17.6368 54.7553 17.6044 54.6877C17.5718 54.6199 17.5549 54.5458 17.5549 54.4708C17.5549 54.3958 17.5718 54.3217 17.6044 54.254C17.6368 54.1864 17.6842 54.1269 17.7428 54.08L31.1794 40.6117C31.2547 40.5318 31.353 40.4773 31.4607 40.4559H36.1165C36.2378 40.413 36.3702 40.413 36.4915 40.4559L39.6169 43.5813C39.6763 43.636 39.7215 43.7044 39.7486 43.7806C39.7758 43.8568 39.784 43.9384 39.7727 44.0184C39.7749 44.096 39.7591 44.1731 39.7266 44.2437C39.6941 44.3142 39.6457 44.3763 39.5852 44.425L39.3356 44.6441C34.4407 48.7249 29.0553 52.1786 23.3045 54.9249L23.8987 57.4561C23.9446 57.6514 23.9463 57.8545 23.9038 58.0505C23.8612 58.2465 23.7754 58.4306 23.6527 58.5892C23.53 58.7479 23.3734 58.8772 23.1943 58.9676C23.0153 59.0581 22.8184 59.1073 22.6178 59.112L22.7737 59.3616ZM18.9616 54.455L22.6483 58.1733C22.6826 58.204 22.727 58.2209 22.7731 58.2209C22.8191 58.2209 22.8635 58.204 22.8979 58.1733C22.9208 58.1414 22.9332 58.1031 22.9332 58.0637C22.9332 58.0244 22.9208 57.9861 22.8979 57.9542L22.2733 55.2355C22.2241 55.0403 22.2438 54.8342 22.3293 54.652C22.4147 54.4698 22.5605 54.3228 22.742 54.2359C28.3381 51.5262 33.5847 48.1472 38.3665 44.173L35.8036 41.6102H31.6165L18.9616 54.455Z" fill="#FF6C37"/>
<path d="M14.8987 57.6742L18.024 54.5488L22.8369 59.3617L15.1811 58.8308C15.0497 58.8205 14.9248 58.7689 14.8244 58.6835C14.724 58.598 14.6531 58.483 14.622 58.3549C14.5908 58.2268 14.6009 58.0921 14.6507 57.9701C14.7007 57.8481 14.7879 57.7449 14.8999 57.6754L14.8987 57.6742Z" fill="white"/>
<path d="M22.9296 59.8305L15.3043 59.2996C14.852 59.2574 14.4629 58.948 14.3035 58.5344C14.1442 58.1207 14.2414 57.6297 14.5543 57.2992L17.6797 54.1738C17.7846 54.0725 17.9247 54.0159 18.0705 54.0159C18.2163 54.0159 18.3565 54.0725 18.4613 54.1738L23.2425 58.9551C23.3087 59.0457 23.3443 59.1551 23.3443 59.2674C23.3443 59.3796 23.3087 59.489 23.2425 59.5797C23.1702 59.6965 23.0596 59.7848 22.9296 59.8293V59.8305ZM15.3043 58.0809L21.5539 58.4874L18.1168 55.2684L15.3043 58.0809Z" fill="#FF6C37"/>
<path d="M36.5232 41.3946L30.2104 42.3637L33.8666 38.7391L36.5232 41.3946Z" fill="white"/>
<path d="M30.2104 42.9555C30.1055 42.9583 30.0021 42.9301 29.9131 42.8744C29.8241 42.8188 29.7535 42.7381 29.71 42.6427C29.6435 42.5521 29.6077 42.4427 29.6077 42.3304C29.6077 42.2179 29.6435 42.1086 29.71 42.018L33.3346 38.3617C33.4445 38.2585 33.5898 38.2009 33.7406 38.2009C33.8915 38.2009 34.0367 38.2585 34.1467 38.3617L36.8044 41.0173C36.8575 41.1014 36.8857 41.199 36.8857 41.2985C36.8857 41.398 36.8575 41.4955 36.8044 41.5798C36.7783 41.6824 36.7233 41.7753 36.6457 41.8474C36.5683 41.9195 36.4716 41.9678 36.3673 41.9864L30.1179 42.9555H30.2104ZM33.8666 39.5489L31.8358 41.5798L35.3361 41.0489L33.8666 39.5489Z" fill="#FF6C37"/>
<path d="M36.5231 41.3924L32.1169 41.9549C31.999 41.9816 31.8756 41.9697 31.765 41.9208C31.6544 41.8719 31.5625 41.7887 31.503 41.6835C31.4433 41.5783 31.4193 41.4566 31.4343 41.3366C31.4492 41.2166 31.5025 41.1047 31.5861 41.0174L33.8677 38.7357L36.5231 41.3924Z" fill="white"/>
<path d="M31.9915 42.5502C31.7873 42.5481 31.5872 42.4922 31.4116 42.3878C31.236 42.2835 31.0912 42.1344 30.9919 41.956C30.8726 41.7421 30.8263 41.4951 30.8601 41.2524C30.894 41.0099 31.0061 40.785 31.1794 40.6119L33.4611 38.3302C33.571 38.2269 33.7162 38.1694 33.8671 38.1694C34.0179 38.1694 34.1632 38.2269 34.2732 38.3302L36.9297 40.9869C37.0088 41.0617 37.0644 41.1579 37.0898 41.2637C37.1152 41.3695 37.1094 41.4804 37.0731 41.583C37.0368 41.6856 36.9714 41.7755 36.885 41.8416C36.7986 41.9079 36.6949 41.9475 36.5864 41.956L32.2119 42.5185L31.9915 42.5502ZM31.9915 41.3935L35.3044 40.9869L33.8361 39.5185L31.9611 41.3935H31.9915ZM59.1788 18.7999C59.1199 18.7013 59.0269 18.6277 58.9173 18.5931C58.8078 18.5586 58.6895 18.5655 58.5846 18.6124C58.5329 18.6386 58.487 18.675 58.4496 18.7192C58.4121 18.7635 58.3839 18.8148 58.3667 18.8702C58.3319 18.9819 58.3428 19.1029 58.3971 19.2066C58.6163 19.6671 58.5553 20.212 58.2413 20.6127C58.2023 20.6514 58.1717 20.6976 58.1515 20.7487C58.1313 20.7997 58.122 20.8544 58.1241 20.9093C58.1253 21.0192 58.167 21.1248 58.2413 21.2058C58.3215 21.2374 58.4107 21.2374 58.4909 21.2058C58.5636 21.224 58.6401 21.222 58.7118 21.1999C58.7835 21.1778 58.8477 21.1365 58.8975 21.0804C59.1549 20.7653 59.3178 20.3838 59.3676 19.9801C59.4174 19.5764 59.3519 19.1668 59.1788 18.7987V18.7999Z" fill="#FF6C37"/>
</svg>
