<svg width="75" height="75" viewBox="0 0 75 75" fill="none" xmlns="http://www.w3.org/2000/svg">
<path d="M37.2298 0.000488281C18.1901 0.000488281 19.3789 8.25725 19.3789 8.25725L19.4 16.8114H37.5693V19.3797H12.1835C12.1835 19.3797 0 17.9979 0 37.2088C0 56.4203 10.6341 55.739 10.6341 55.739H16.9804V46.8241C16.9804 46.8241 16.6383 36.19 27.4447 36.19H45.4654C45.4654 36.19 55.5899 36.3536 55.5899 26.405V9.95555C55.5899 9.95555 57.1277 0.000488281 37.2298 0.000488281ZM27.2113 5.75304C27.6406 5.75265 28.0658 5.83694 28.4626 6.00106C28.8593 6.16519 29.2199 6.40594 29.5235 6.70954C29.827 7.01313 30.0677 7.37362 30.2319 7.77035C30.396 8.1671 30.4803 8.59235 30.4799 9.02165C30.4803 9.45102 30.396 9.8762 30.2319 10.2729C30.0677 10.6697 29.827 11.0302 29.5235 11.3338C29.2199 11.6374 28.8593 11.8782 28.4626 12.0423C28.0658 12.2064 27.6406 12.2907 27.2113 12.2903C26.7819 12.2907 26.3567 12.2064 25.96 12.0423C25.5632 11.8782 25.2028 11.6374 24.8992 11.3338C24.5956 11.0302 24.3548 10.6697 24.1907 10.2729C24.0266 9.8762 23.9422 9.45102 23.9426 9.02165C23.9422 8.59235 24.0266 8.1671 24.1907 7.77035C24.3548 7.37362 24.5956 7.01313 24.8992 6.70954C25.2028 6.40594 25.5632 6.16519 25.96 6.00106C26.3567 5.83694 26.7819 5.75265 27.2113 5.75304Z" fill="url(#paint0_linear_24_848)"/>
<path d="M37.7706 74.6104C56.8103 74.6104 55.6215 66.3536 55.6215 66.3536L55.6003 57.7997H37.4307V55.2315H62.8165C62.8165 55.2315 75 56.6132 75 37.4017C75 18.1905 64.366 18.8718 64.366 18.8718H58.0196V27.7864C58.0196 27.7864 58.3617 38.4204 47.5553 38.4204H29.5347C29.5347 38.4204 19.4101 38.2569 19.4101 48.2058V64.6556C19.4101 64.6556 17.873 74.6104 37.7706 74.6104ZM47.7891 68.8584C47.3597 68.8588 46.9345 68.7745 46.5378 68.6104C46.141 68.4462 45.7806 68.2055 45.477 67.9019C45.1734 67.5983 44.9326 67.2378 44.7684 66.8411C44.6043 66.4443 44.52 66.0191 44.5204 65.5898C44.52 65.1604 44.6043 64.7352 44.7684 64.3383C44.9325 63.9416 45.1732 63.5811 45.4768 63.2775C45.7804 62.9738 46.1409 62.733 46.5377 62.5689C46.9344 62.4048 47.3597 62.3205 47.7891 62.3208C48.2184 62.3205 48.6436 62.4048 49.0404 62.5689C49.4371 62.733 49.7976 62.9737 50.1012 63.2773C50.4048 63.5809 50.6455 63.9414 50.8097 64.3382C50.9738 64.7349 51.0581 65.1601 51.0577 65.5895C51.0581 66.0188 50.9738 66.444 50.8097 66.8408C50.6455 67.2375 50.4048 67.598 50.1012 67.9016C49.7976 68.2052 49.4371 68.4459 49.0404 68.6101C48.6436 68.7742 48.2184 68.8587 47.7891 68.8584Z" fill="url(#paint1_linear_24_848)"/>
<defs>
<linearGradient id="paint0_linear_24_848" x1="7.20747" y1="6.7112" x2="44.3752" y2="43.5081" gradientUnits="userSpaceOnUse">
<stop stop-color="#387EB8"/>
<stop offset="1" stop-color="#366994"/>
</linearGradient>
<linearGradient id="paint1_linear_24_848" x1="30.0211" y1="30.3399" x2="69.935" y2="68.0717" gradientUnits="userSpaceOnUse">
<stop stop-color="#FFE052"/>
<stop offset="1" stop-color="#FFC331"/>
</linearGradient>
</defs>
</svg>
