<svg width="75" height="68" viewBox="0 0 75 68" fill="none" xmlns="http://www.w3.org/2000/svg">
<path fill-rule="evenodd" clip-rule="evenodd" d="M46.2833 41.994L44.8447 44.4921C44.4113 45.2446 43.609 45.7084 42.7407 45.7084H31.72C30.8516 45.7084 30.0493 45.2446 29.6159 44.4921L28.1772 41.994H46.2833ZM50.3108 35.0008L47.7741 39.4053H26.6863L24.1498 35.0008H50.3108ZM47.8674 28.1623L50.3148 32.4122H24.1458L26.5932 28.1623H47.8674ZM42.7407 21.6976C43.609 21.6976 44.4113 22.1614 44.8447 22.9139L46.3765 25.5736H28.0841L29.6159 22.9139C30.0493 22.1614 30.8516 21.6976 31.72 21.6976H42.7407Z" fill="#00435B"/>
<path d="M15.6805 20.5384C14.4597 14.6187 14.1977 10.0783 14.9868 6.7814C15.4561 4.8206 16.3142 3.22095 17.6189 2.06686C18.9964 0.848431 20.7379 0.250546 22.6947 0.250546C25.9228 0.250546 29.3164 1.72262 32.9431 4.51918C34.4223 5.65985 35.9576 7.03475 37.552 8.64463C37.6789 8.4812 37.8223 8.32715 37.9822 8.18473C42.4898 4.16773 46.285 1.67189 49.531 0.709576C51.461 0.137386 53.2731 0.0828764 54.9232 0.638206C56.6651 1.22439 58.053 2.43612 59.0322 4.13338C60.6483 6.93448 61.0744 10.6151 60.472 15.1597C60.2263 17.0122 59.8065 19.03 59.2133 21.2164C59.4371 21.2434 59.6614 21.293 59.8836 21.3667C65.6029 23.2619 69.6527 25.3001 72.1046 27.6293C73.5634 29.0152 74.516 30.5581 74.8604 32.2659C75.2242 34.0685 74.8695 35.8766 73.8914 37.5726C72.2784 40.3696 69.3125 42.5756 65.0872 44.3229C63.3906 45.0245 61.471 45.6599 59.3263 46.2314C59.4241 46.4524 59.5 46.687 59.5508 46.9332C60.7717 52.8529 61.0336 57.3933 60.2445 60.6902C59.7752 62.6511 58.9171 64.2507 57.6124 65.4048C56.235 66.6232 54.4934 67.2211 52.5367 67.2211C49.3085 67.2211 45.9149 65.749 42.2883 62.9524C40.7933 61.7997 39.2411 60.4076 37.6285 58.7755C37.4625 59.0351 37.2588 59.2764 37.0178 59.491C32.5102 63.508 28.715 66.0039 25.469 66.9662C23.539 67.5384 21.7269 67.5929 20.0767 67.0375C18.3349 66.4514 16.947 65.2396 15.9678 63.5424C14.3517 60.7413 13.9255 57.0607 14.528 52.516C14.7825 50.5966 15.224 48.4996 15.8517 46.2216C15.6064 46.1968 15.36 46.1449 15.1164 46.0642C9.39712 44.1689 5.34727 42.1307 2.89539 39.8014C1.43658 38.4156 0.483959 36.8727 0.139593 35.1649C-0.223885 33.3623 0.130534 31.5542 1.1086 29.8582C2.72163 27.0612 5.68751 24.8552 9.91282 23.1079C11.6599 22.3854 13.6435 21.733 15.866 21.1485C15.7868 20.9546 15.7243 20.7508 15.6805 20.5384Z" fill="#002B3B"/>
<path fill-rule="evenodd" clip-rule="evenodd" d="M30.3688 18.6526C33.3335 18.4166 36.3893 18.3124 39.5361 18.34C40.1321 18.3452 40.6194 17.8663 40.6247 17.2703C40.6269 17.0193 40.5415 16.7754 40.3833 16.5805C33.2208 7.76173 27.3231 3.35229 22.6901 3.35229C17.907 3.35229 16.5425 8.62468 18.5965 19.1695C18.7091 19.7475 19.2642 20.1285 19.8441 20.0257C23.5008 19.3777 27.0091 18.9199 30.3688 18.6526Z" fill="#FF4154"/>
<path fill-rule="evenodd" clip-rule="evenodd" d="M47.0114 20.104C48.7235 22.5712 50.3668 25.1838 51.9411 27.9421C52.2366 28.4598 52.8957 28.6398 53.4133 28.3444C53.6303 28.2205 53.7976 28.0251 53.8867 27.7917C57.9382 17.1646 58.7897 9.83576 56.4412 5.80511C54.0176 1.64579 48.7369 3.08398 40.5992 10.1197C40.1518 10.5066 40.0991 11.1815 40.4811 11.633C42.8989 14.4911 45.0757 17.3148 47.0114 20.104Z" fill="#FF4154"/>
<path fill-rule="evenodd" clip-rule="evenodd" d="M54.1974 34.9505C52.9161 37.6436 51.4758 40.3503 49.8765 43.0706C49.5745 43.5844 49.7462 44.2457 50.2599 44.5478C50.4774 44.6756 50.733 44.7232 50.9819 44.6823C62.1473 42.8465 68.8896 39.9164 71.2088 35.8921C73.6041 31.7357 69.7521 27.9262 59.653 24.4635C59.0967 24.2728 58.4901 24.5627 58.2889 25.1153C57.0146 28.6178 55.6507 31.8962 54.1974 34.9505Z" fill="#FF4154"/>
<path fill-rule="evenodd" clip-rule="evenodd" d="M45.0359 48.8883C42.0712 49.1243 39.0155 49.2285 35.8686 49.2009C35.2726 49.1957 34.7852 49.6746 34.7801 50.2706C34.7778 50.5216 34.8632 50.7655 35.0215 50.9603C42.1839 59.7791 48.0816 64.1886 52.7146 64.1886C57.4977 64.1886 58.8622 58.9162 56.8082 48.3714C56.6956 47.7934 56.1405 47.4124 55.5607 47.5151C51.9038 48.1632 48.3956 48.6209 45.0359 48.8883Z" fill="#FF4154"/>
<path fill-rule="evenodd" clip-rule="evenodd" d="M27.9886 47.5717C26.2765 45.1046 24.6332 42.4919 23.0589 39.7336C22.7635 39.216 22.1044 39.0359 21.5867 39.3313C21.3697 39.4552 21.2023 39.6506 21.1133 39.8841C17.0617 50.5111 16.2103 57.84 18.5589 61.8706C20.9824 66.03 26.263 64.5918 34.4008 57.556C34.8482 57.1692 34.9009 56.4943 34.5189 56.0427C32.101 53.1846 29.9242 50.361 27.9886 47.5717Z" fill="#FF4154"/>
<path fill-rule="evenodd" clip-rule="evenodd" d="M20.8027 32.3206C22.0841 29.6275 23.5244 26.9208 25.1236 24.2005C25.4256 23.6868 25.254 23.0254 24.7402 22.7234C24.5227 22.5955 24.2672 22.5479 24.0182 22.5888C12.8528 24.4246 6.11056 27.3547 3.79133 31.3791C1.39605 35.5354 5.24797 39.3449 15.3471 42.8076C15.9034 42.9984 16.5101 42.7085 16.7112 42.1557C17.9856 38.6533 19.3494 35.3749 20.8027 32.3206Z" fill="#FF4154"/>
<path fill-rule="evenodd" clip-rule="evenodd" d="M32.6059 21.8325H41.8566C43.2095 21.8325 44.4591 22.5561 45.1325 23.7294L49.7774 31.823C50.4455 32.9872 50.4455 34.4187 49.7774 35.583L45.1325 43.6765C44.4591 44.8499 43.2095 45.5735 41.8566 45.5735H32.6059C31.253 45.5735 30.0034 44.8499 29.3301 43.6765L24.6852 35.583C24.0169 34.4187 24.0169 32.9872 24.6852 31.823L29.3301 23.7294C30.0034 22.5561 31.253 21.8325 32.6059 21.8325ZM40.4467 24.2753C41.8003 24.2753 43.0504 24.9996 43.7235 26.174L46.9626 31.8247C47.6295 32.9881 47.6295 34.4178 46.9626 35.5812L43.7235 41.232C43.0504 42.4063 41.8003 43.1307 40.4467 43.1307H34.0158C32.6622 43.1307 31.4121 42.4063 30.7389 41.232L27.5 35.5812C26.8331 34.4178 26.8331 32.9881 27.5 31.8247L30.7389 26.174C31.4121 24.9996 32.6622 24.2753 34.0158 24.2753H40.4467ZM38.9271 26.9471H35.5354C34.1832 26.9471 32.9342 27.6699 32.2605 28.8424L30.549 31.8213C29.8795 32.9865 29.8795 34.4195 30.549 35.5846L32.2605 38.5635C32.9342 39.736 34.1832 40.4589 35.5354 40.4589H38.9271C40.2793 40.4589 41.5284 39.736 42.202 38.5635L43.9136 35.5846C44.583 34.4195 44.583 32.9865 43.9136 31.8213L42.202 28.8424C41.5284 27.6699 40.2793 26.9471 38.9271 26.9471ZM37.4638 29.5044C38.815 29.5044 40.0632 30.2262 40.7373 31.3973L40.98 31.8189C41.6513 32.9853 41.6513 34.4207 40.98 35.5871L40.7373 36.0087C40.0632 37.1797 38.815 37.9015 37.4638 37.9015H36.9987C35.6475 37.9015 34.3992 37.1797 33.7252 36.0087L33.4826 35.5871C32.8113 34.4207 32.8113 32.9853 33.4826 31.8189L33.7252 31.3973C34.3992 30.2262 35.6475 29.5044 36.9987 29.5044H37.4638ZM37.2318 32.0235C36.6305 32.0235 36.0759 32.3436 35.7756 32.8632C35.4754 33.3828 35.4754 34.0231 35.7756 34.5427C36.0759 35.0623 36.6305 35.3824 37.2306 35.3824C37.8321 35.3824 38.3866 35.0623 38.6869 34.5427C38.9871 34.0231 38.9871 33.3828 38.6869 32.8632C38.3866 32.3436 37.8321 32.0235 37.2318 32.0235Z" fill="#FFD94C"/>
</svg>
