<svg width="75" height="68" viewBox="0 0 75 68" fill="none" xmlns="http://www.w3.org/2000/svg">
<path d="M37.3566 40.6126C40.9722 40.6126 43.9033 37.6523 43.9033 34.0005C43.9033 30.3486 40.9722 27.3883 37.3566 27.3883C33.7409 27.3883 30.8098 30.3486 30.8098 34.0005C30.8098 37.6523 33.7409 40.6126 37.3566 40.6126Z" fill="#61DAFB"/>
<path d="M37.3564 47.5473C56.7575 47.5473 72.4851 41.4821 72.4851 34.0004C72.4851 26.5187 56.7575 20.4535 37.3564 20.4535C17.9554 20.4535 2.22778 26.5187 2.22778 34.0004C2.22778 41.4821 17.9554 47.5473 37.3564 47.5473Z" stroke="#61DAFB" stroke-width="5"/>
<path d="M25.7408 40.7738C35.4413 57.7436 48.5056 68.4678 54.9209 64.7269C61.3361 60.986 58.6729 44.1968 48.9723 27.227C39.2718 10.2571 26.2075 -0.46704 19.7922 3.27383C13.377 7.0147 16.0402 23.804 25.7408 40.7738Z" stroke="#61DAFB" stroke-width="5"/>
<path d="M25.7407 27.2269C16.0403 44.1967 13.377 60.9861 19.7922 64.7269C26.2074 68.4678 39.2719 57.7437 48.9723 40.7739C58.6729 23.804 61.3361 7.01471 54.9209 3.27383C48.5057 -0.46704 35.4413 10.2571 25.7407 27.2269Z" stroke="#61DAFB" stroke-width="5"/>
</svg>
