<svg width="75" height="57" viewBox="0 0 75 57" fill="none" xmlns="http://www.w3.org/2000/svg">
<path d="M64.5809 32.5837C61.9643 32.5974 59.6903 33.2276 57.7862 34.1591C57.0875 32.7755 56.3888 31.5426 56.2655 30.6384C56.1286 29.5836 55.9642 28.9398 56.1286 27.6795C56.293 26.4192 57.0327 24.6246 57.019 24.4876C57.0053 24.3506 56.8546 23.7068 55.3478 23.6931C53.8409 23.6793 52.5395 23.9808 52.3887 24.378C52.238 24.7753 51.9503 25.6794 51.7586 26.6109C51.4983 27.9808 48.7448 32.8714 47.1694 35.4331C46.6625 34.4331 46.2242 33.5564 46.1282 32.8577C45.9913 31.8029 45.8269 31.159 45.9913 29.8987C46.1557 28.6384 46.8954 26.8438 46.8817 26.7069C46.868 26.5698 46.7174 25.926 45.2105 25.9123C43.7036 25.8986 42.4022 26.1999 42.2514 26.5972C42.1007 26.9945 41.9363 27.9261 41.6213 28.8302C41.3062 29.7343 37.6486 37.899 36.6896 40.0086C36.1964 41.0908 35.7718 41.9538 35.4704 42.543C35.4704 42.543 35.4567 42.5841 35.4156 42.6525C35.1554 43.1594 35.0047 43.4334 35.0047 43.4334C35.0047 43.4334 35.0047 43.4334 35.0047 43.4471C34.7992 43.8169 34.58 44.1594 34.4704 44.1594C34.3882 44.1594 34.2375 43.1731 34.4978 41.8306C35.0457 38.9949 36.3472 34.5838 36.3335 34.4331C36.3335 34.3509 36.5801 33.5838 35.4841 33.1865C34.4156 32.7892 34.032 33.4467 33.9362 33.4467C33.8402 33.4467 33.7718 33.6797 33.7718 33.6797C33.7718 33.6797 34.9636 28.7206 31.4977 28.7206C29.3333 28.7206 26.3468 31.0905 24.8674 33.2276C23.9358 33.7344 21.9494 34.8167 19.8261 35.9811C19.0178 36.4332 18.1823 36.8853 17.4014 37.3099C17.3466 37.2551 17.2918 37.1866 17.2369 37.1318C13.0451 32.6522 5.29142 29.4877 5.6202 23.4738C5.74349 21.282 6.49694 15.5284 20.5111 8.54194C32.0456 2.85679 41.224 4.43216 42.8131 7.92544C45.0872 12.9119 37.8952 22.1724 25.977 23.5149C21.4289 24.0219 19.0453 22.2684 18.4425 21.6108C17.8124 20.9259 17.7164 20.8848 17.4836 21.0217C17.1 21.2272 17.3466 21.8437 17.4836 22.1999C17.8397 23.1314 19.3055 24.7752 21.7851 25.5835C23.9769 26.2959 29.3059 26.6931 35.7581 24.1999C42.9775 21.4053 48.6215 13.638 46.9639 7.13089C45.3063 0.527961 34.3471 -1.65019 23.9769 2.03486C17.8124 4.22674 11.1272 7.67884 6.31885 12.1722C0.606349 17.5148 -0.297787 22.1588 0.0720869 24.104C1.40089 31.0083 10.9217 35.5016 14.7301 38.8305C14.5383 38.9401 14.3602 39.036 14.2095 39.1182C12.3053 40.0634 5.04484 43.858 3.23657 47.8719C1.18171 52.4199 3.56534 55.6803 5.14073 56.1187C10.0313 57.4749 15.0588 55.0365 17.7575 51.009C20.4563 46.9814 20.1275 41.7484 18.8809 39.351C18.8672 39.3237 18.8535 39.2963 18.8261 39.2688C19.3193 38.9812 19.8261 38.6798 20.3193 38.3921C21.2919 37.8168 22.2509 37.2825 23.0728 36.8442C22.607 38.1181 22.2645 39.6387 22.1002 41.8306C21.8947 44.406 22.9495 47.7486 24.3331 49.0637C24.9496 49.639 25.6756 49.6527 26.1413 49.6527C27.7579 49.6527 28.4839 48.3102 29.2922 46.7211C30.2785 44.7759 31.1689 42.5155 31.1689 42.5155C31.1689 42.5155 30.0593 48.6253 33.0731 48.6253C34.169 48.6253 35.2787 47.2006 35.7718 46.4745C35.7718 46.4883 35.7718 46.4883 35.7718 46.4883C35.7718 46.4883 35.7992 46.4472 35.854 46.3512C35.9636 46.1732 36.0321 46.0636 36.0321 46.0636C36.0321 46.0636 36.0321 46.0499 36.0321 46.0362C36.4705 45.2691 37.4568 43.5293 38.9226 40.6388C40.8131 36.9126 42.635 32.255 42.635 32.255C42.635 32.255 42.7994 33.392 43.361 35.2824C43.6898 36.3921 44.3748 37.6113 44.9228 38.7894C44.4844 39.4059 44.2104 39.7483 44.2104 39.7483C44.2104 39.7483 44.2104 39.7483 44.2241 39.762C43.868 40.2278 43.4843 40.7346 43.0597 41.2278C41.5665 43.0087 39.7856 45.0498 39.539 45.6389C39.2513 46.3376 39.3199 46.8444 39.8678 47.2554C40.2651 47.5568 40.9775 47.5979 41.7035 47.5568C43.046 47.4609 43.9912 47.1321 44.457 46.9266C45.183 46.6663 46.0324 46.269 46.8269 45.68C48.2927 44.5978 49.1831 43.0498 49.1009 41.0086C49.0598 39.8853 48.69 38.762 48.2379 37.7072C48.3749 37.5154 48.4982 37.3236 48.6352 37.1318C50.9504 33.7482 52.7449 30.0357 52.7449 30.0357C52.7449 30.0357 52.9093 31.1727 53.471 33.0632C53.7449 34.0221 54.3066 35.0633 54.7997 36.077C52.6216 37.8441 51.2791 39.899 50.7996 41.2415C49.9366 43.7347 50.6078 44.8581 51.8819 45.1183C52.4573 45.2416 53.2792 44.9676 53.882 44.7074C54.6491 44.4608 55.5532 44.0361 56.4162 43.406C57.882 42.3237 59.2931 40.8168 59.2109 38.7757C59.1698 37.8441 58.9232 36.9263 58.5807 36.0359C60.4301 35.2687 62.8137 34.8441 65.8549 35.2002C72.3756 35.9674 73.6634 40.036 73.4168 41.7484C73.1702 43.4607 71.8003 44.3923 71.3482 44.68C70.8962 44.9676 70.7455 45.0636 70.7865 45.2691C70.8413 45.5704 71.0606 45.5567 71.4441 45.5019C71.9783 45.406 74.8688 44.1183 74.9921 40.9675C75.198 36.94 71.3619 32.5426 64.5809 32.5837ZM14.278 49.5432C12.1136 51.8994 9.09975 52.7898 7.79835 52.0364C6.40105 51.2281 6.94901 47.7486 9.6066 45.2553C11.2231 43.7347 13.3054 42.3237 14.689 41.4607C15.0041 41.2689 15.4698 40.995 16.0315 40.6524C16.1274 40.5977 16.1822 40.5702 16.1822 40.5702C16.2917 40.5018 16.4014 40.4333 16.511 40.3648C17.4836 43.9266 16.5521 47.0636 14.278 49.5432ZM30.0319 38.8305C29.2784 40.6662 27.7031 45.3649 26.7441 45.1047C25.9222 44.8854 25.4153 41.3237 26.5797 37.803C27.1688 36.0359 28.4154 33.9262 29.1415 33.1043C30.3196 31.7892 31.621 31.3508 31.9361 31.8851C32.3333 32.5837 30.4976 37.6797 30.0319 38.8305ZM43.0323 45.0498C42.7172 45.2142 42.4158 45.3238 42.2789 45.2416C42.1829 45.1869 42.4158 44.9676 42.4158 44.9676C42.4158 44.9676 44.046 43.2142 44.6899 42.4197C45.0597 41.9538 45.4981 41.4059 45.9639 40.7895C45.9639 40.8442 45.9639 40.9128 45.9639 40.9675C45.9639 43.0635 43.9364 44.4745 43.0323 45.0498ZM53.06 42.7621C52.8271 42.5977 52.8682 42.0498 53.649 40.3374C53.9504 39.6661 54.6628 38.5428 55.882 37.4606C56.019 37.899 56.1149 38.3236 56.1012 38.7209C56.0875 41.3648 54.197 42.3511 53.06 42.7621Z" fill="#CD6799"/>
</svg>
