<svg width="75" height="46" viewBox="0 0 75 46" fill="none" xmlns="http://www.w3.org/2000/svg">
<path d="M37.5002 0.500366C27.4999 0.500366 21.2501 5.49912 18.7498 15.4956C22.5002 10.4969 26.8753 8.62309 31.875 9.87229C34.728 10.5851 36.7669 12.6549 39.0243 14.9451C42.7006 18.6759 46.9557 22.9938 56.2507 22.9938C66.2501 22.9938 72.5008 17.995 75.0001 7.99752C71.2507 12.9963 66.8756 14.871 61.875 13.6218C59.023 12.909 56.9841 10.8392 54.7267 8.54899C51.0503 4.81819 46.7944 0.500366 37.5002 0.500366ZM18.7498 22.9938C8.75039 22.9938 2.49962 27.9925 0.000244141 37.9899C3.74978 32.9913 8.12489 31.1165 13.1255 32.3666C15.9775 33.0804 18.0164 35.1492 20.2738 37.4385C23.9502 41.1693 28.2061 45.4881 37.5002 45.4881C47.5006 45.4881 53.7504 40.4893 56.2507 30.4919C52.5002 35.4906 48.1252 37.3653 43.1255 36.1152C40.2725 35.4034 38.2336 33.3326 35.9762 31.0433C32.2999 27.3126 28.0448 22.9938 18.7498 22.9938Z" fill="#06B6D4"/>
</svg>
