<svg width="75" height="75" viewBox="0 0 75 75" fill="none" xmlns="http://www.w3.org/2000/svg">
<path d="M0.713563 26.2748C0.713563 26.2748 -1.11316 24.9581 1.07891 23.1999L6.18611 18.6331C6.18611 18.6331 7.64745 17.0956 9.1926 18.4351L56.3219 54.1171V71.2274C56.3219 71.2274 56.2991 73.9142 52.8512 73.6174L0.713563 26.2748Z" fill="#2489CA"/>
<path d="M12.8611 37.3038L0.713473 48.3479C0.713473 48.3479 -0.534786 49.2765 0.713473 50.9357L6.35347 56.0658C6.35347 56.0658 7.69304 57.5043 9.67199 55.8678L22.5504 46.1025L12.8611 37.3038Z" fill="#1070B3"/>
<path d="M34.1882 37.395L56.4667 20.3837L56.3221 3.36468C56.3221 3.36468 55.3706 -0.349657 52.1967 1.58363L22.5505 28.5659L34.1882 37.395Z" fill="#0877B9"/>
<path d="M52.8513 73.6404C54.1453 74.965 55.7132 74.5309 55.7132 74.5309L73.0746 65.9757C75.2971 64.4611 74.9851 62.5811 74.9851 62.5811V11.4938C74.9851 9.24843 72.6865 8.47211 72.6865 8.47211L57.6389 1.21846C54.3508 -0.813768 52.1968 1.58381 52.1968 1.58381C52.1968 1.58381 54.9673 -0.410366 56.3221 3.36486V70.9155C56.3221 71.3799 56.2232 71.8365 56.0252 72.2475C55.6295 73.0467 54.7694 73.7926 52.7067 73.4805L52.8513 73.6404Z" fill="#3C99D4"/>
</svg>
